<?xml version="1.0" standalone="no"?>
<!DOCTYPE svg PUBLIC "-//W3C//DTD SVG 20010904//EN"
 "http://www.w3.org/TR/2001/REC-SVG-20010904/DTD/svg10.dtd">
<svg version="1.0" xmlns="http://www.w3.org/2000/svg"
 width="97.000000pt" height="97.000000pt" viewBox="0 0 97.000000 97.000000"
 preserveAspectRatio="xMidYMid meet">
<metadata>
Created by potrace 1.14, written by Peter Selinger 2001-2017
</metadata>
<g transform="translate(0.000000,97.000000) scale(0.100000,-0.100000)"
fill="#000000" stroke="none">
<path d="M400 959 c-50 -8 -132 -38 -141 -52 -3 -5 -10 -8 -14 -6 -16 5 -109
-76 -150 -131 -74 -101 -106 -242 -83 -370 21 -120 104 -242 212 -312 218
-141 507 -80 652 139 55 82 74 142 78 248 6 124 -37 240 -126 340 -27 30 -56
55 -64 55 -8 0 -14 4 -14 8 0 12 -95 57 -150 72 -54 15 -138 18 -200 9z m-150
-190 c8 -13 50 -73 93 -134 103 -143 102 -143 83 -164 -9 -10 -13 -22 -9 -27
5 -5 4 -6 -1 -2 -5 4 -20 -10 -34 -30 -56 -83 -88 -128 -110 -152 -12 -14 -24
-32 -27 -40 -7 -22 -45 -44 -57 -32 -6 6 4 29 28 63 21 30 41 56 44 59 19 15
58 85 53 93 -3 6 -2 7 4 4 6 -4 19 9 29 28 10 19 22 35 26 35 15 0 3 43 -19
66 -13 14 -23 27 -23 30 0 13 -58 82 -65 76 -3 -4 -6 -2 -5 3 5 21 0 36 -10
30 -6 -4 -10 -3 -9 2 3 20 -2 34 -11 28 -6 -4 -9 -3 -8 2 4 11 -34 73 -45 73
-4 0 -6 4 -3 9 10 16 61 2 76 -20z m106 22 c6 -1 33 -33 60 -73 27 -39 52 -76
57 -82 5 -7 11 -5 17 6 6 9 26 38 46 64 19 25 30 43 22 38 -7 -4 -1 5 15 21
27 27 77 43 77 23 0 -9 -168 -248 -174 -248 -2 0 -23 28 -47 63 -24 34 -47 64
-51 65 -4 2 -8 10 -8 17 0 7 -3 15 -7 17 -9 3 -63 81 -63 89 0 3 10 5 23 3 12
-1 27 -3 33 -3z m417 2 c4 -3 2 -12 -4 -20 -6 -7 -8 -13 -5 -13 4 0 -4 -12
-18 -27 -14 -15 -23 -30 -20 -35 3 -4 1 -8 -4 -8 -5 0 -39 -45 -77 -99 l-68
-100 23 -36 c12 -19 29 -42 37 -50 8 -8 11 -15 6 -15 -4 0 -3 -4 3 -8 12 -8
134 -182 134 -192 0 -16 -42 -6 -58 15 -11 14 -23 21 -27 17 -5 -4 -6 -2 -3 3
3 6 -36 68 -87 140 l-94 129 64 91 c35 49 81 116 102 147 21 31 47 59 58 61
11 2 23 5 26 6 3 0 9 -2 12 -6z m-246 -410 c26 -38 51 -69 55 -71 5 -2 8 -10
8 -17 0 -8 10 -21 22 -29 12 -9 19 -16 14 -16 -4 0 2 -12 13 -26 28 -35 27
-40 -11 -39 -29 1 -38 9 -88 82 -30 45 -57 82 -60 82 -3 1 -29 -35 -59 -79
-57 -84 -62 -88 -101 -85 -30 2 -29 7 13 65 17 25 31 46 29 48 -1 1 6 10 16
20 27 29 86 116 84 125 -1 4 2 7 7 7 6 0 32 -30 58 -67z"/>
</g>
</svg>
